<svg width="59" height="54" viewBox="0 0 59 54" fill="none" xmlns="http://www.w3.org/2000/svg">
<path d="M1.56 6V4.56H9.84C15.44 4.58666 18.7067 4.65333 19.64 4.76C22.36 5.13333 24.5467 5.97333 26.2 7.28C27.4533 8.34667 28.2533 9.65333 28.6 11.2C28.7067 11.7867 28.7067 12.4667 28.6 13.24C28.3867 14.0667 28.0533 14.8 27.6 15.44C27.0133 16.2667 26.2667 16.9467 25.36 17.48C24.88 17.7467 24.24 18.0533 23.44 18.4L23.04 18.56L23.36 18.72C24.2667 19.3067 24.9467 19.9333 25.4 20.6C25.7733 21.08 26.0267 21.5467 26.16 22C26.3467 22.4 26.5333 23.4 26.72 25C26.9333 26.6267 27.0933 27.5867 27.2 27.88C27.6267 29.2667 28.5067 29.96 29.84 29.96C30.1333 29.96 30.3467 29.9333 30.48 29.88C31.0133 29.4267 31.3333 28.8267 31.44 28.08C31.44 27.7867 31.5733 27.5467 31.84 27.36C32.0267 27.28 32.6133 27.2667 33.6 27.32C33.7867 27.32 33.8933 27.3333 33.92 27.36C34.1067 27.4667 34.2267 27.6267 34.28 27.84C34.3867 28.08 34.36 28.4933 34.2 29.08C33.7733 30.6533 32.8267 31.6933 31.36 32.2C31.0933 32.28 30.8267 32.3467 30.56 32.4C29.7333 32.5333 28.3333 32.5067 26.36 32.32C22.7067 31.9467 20.5867 30.6133 20 28.32C19.9467 28.16 19.9067 27.9867 19.88 27.8C19.8533 27.6133 19.84 26.7733 19.84 25.28C19.84 23.6533 19.7733 22.6133 19.64 22.16C19.2667 20.9867 18.5733 20.1733 17.56 19.72C17.1867 19.56 16.2933 19.48 14.88 19.48H14.44H12.32V24.28V29.12H14.48H16.64V30.56V32H16.12C16.1467 32 14.8933 31.9733 12.36 31.92C10.2 31.8933 8.02667 31.8933 5.84 31.92C3.30667 31.9733 2.05333 32 2.08 32H1.56V30.56V29.12H3.72H5.88V18.28V7.44H3.72H1.56V6ZM17.28 7.48C17.0667 7.45333 16.1333 7.44 14.48 7.44H12.32V12.24V17.04H14.88C16.8 17.0133 18.0533 16.9333 18.64 16.8C19.28 16.6667 19.8933 16.4133 20.48 16.04C20.9867 15.64 21.32 15.0133 21.48 14.16C21.6133 13.2533 21.6267 12.16 21.52 10.88C21.44 9.65333 21.0533 8.8 20.36 8.32C20.2267 8.24 20.08 8.16 19.92 8.08C19.1733 7.76 18.2933 7.56 17.28 7.48Z" fill="black"/>
<path d="M25.56 16V14.56H33.84C39.44 14.5867 42.7067 14.6533 43.64 14.76C46.36 15.1333 48.5467 15.9733 50.2 17.28C51.4533 18.3467 52.2533 19.6533 52.6 21.2C52.7067 21.7867 52.7067 22.4667 52.6 23.24C52.3867 24.0667 52.0533 24.8 51.6 25.44C51.0133 26.2667 50.2667 26.9467 49.36 27.48C48.88 27.7467 48.24 28.0533 47.44 28.4L47.04 28.56L47.36 28.72C48.2667 29.3067 48.9467 29.9333 49.4 30.6C49.7733 31.08 50.0267 31.5467 50.16 32C50.3467 32.4 50.5333 33.4 50.72 35C50.9333 36.6267 51.0933 37.5867 51.2 37.88C51.6267 39.2667 52.5067 39.96 53.84 39.96C54.1333 39.96 54.3467 39.9333 54.48 39.88C55.0133 39.4267 55.3333 38.8267 55.44 38.08C55.44 37.7867 55.5733 37.5467 55.84 37.36C56.0267 37.28 56.6133 37.2667 57.6 37.32C57.7867 37.32 57.8933 37.3333 57.92 37.36C58.1067 37.4667 58.2267 37.6267 58.28 37.84C58.3867 38.08 58.36 38.4933 58.2 39.08C57.7733 40.6533 56.8267 41.6933 55.36 42.2C55.0933 42.28 54.8267 42.3467 54.56 42.4C53.7333 42.5333 52.3333 42.5067 50.36 42.32C46.7067 41.9467 44.5867 40.6133 44 38.32C43.9467 38.16 43.9067 37.9867 43.88 37.8C43.8533 37.6133 43.84 36.7733 43.84 35.28C43.84 33.6533 43.7733 32.6133 43.64 32.16C43.2667 30.9867 42.5733 30.1733 41.56 29.72C41.1867 29.56 40.2933 29.48 38.88 29.48H38.44H36.32V34.28V39.12H38.48H40.64V40.56V42H40.12C40.1467 42 38.8933 41.9733 36.36 41.92C34.2 41.8933 32.0267 41.8933 29.84 41.92C27.3067 41.9733 26.0533 42 26.08 42H25.56V40.56V39.12H27.72H29.88V28.28V17.44H27.72H25.56V16ZM41.28 17.48C41.0667 17.4533 40.1333 17.44 38.48 17.44H36.32V22.24V27.04H38.88C40.8 27.0133 42.0533 26.9333 42.64 26.8C43.28 26.6667 43.8933 26.4133 44.48 26.04C44.9867 25.64 45.32 25.0133 45.48 24.16C45.6133 23.2533 45.6267 22.16 45.52 20.88C45.44 19.6533 45.0533 18.8 44.36 18.32C44.2267 18.24 44.08 18.16 43.92 18.08C43.1733 17.76 42.2933 17.56 41.28 17.48Z" fill="black"/>
</svg>
