<svg width="34" height="29" viewBox="0 0 34 29" fill="none" xmlns="http://www.w3.org/2000/svg">
<path d="M0.56 2V0.559998H8.84C14.44 0.586664 17.7067 0.653331 18.64 0.759998C21.36 1.13333 23.5467 1.97333 25.2 3.28C26.4533 4.34667 27.2533 5.65333 27.6 7.2C27.7067 7.78667 27.7067 8.46667 27.6 9.24C27.3867 10.0667 27.0533 10.8 26.6 11.44C26.0133 12.2667 25.2667 12.9467 24.36 13.48C23.88 13.7467 23.24 14.0533 22.44 14.4L22.04 14.56L22.36 14.72C23.2667 15.3067 23.9467 15.9333 24.4 16.6C24.7733 17.08 25.0267 17.5467 25.16 18C25.3467 18.4 25.5333 19.4 25.72 21C25.9333 22.6267 26.0933 23.5867 26.2 23.88C26.6267 25.2667 27.5067 25.96 28.84 25.96C29.1333 25.96 29.3467 25.9333 29.48 25.88C30.0133 25.4267 30.3333 24.8267 30.44 24.08C30.44 23.7867 30.5733 23.5467 30.84 23.36C31.0267 23.28 31.6133 23.2667 32.6 23.32C32.7867 23.32 32.8933 23.3333 32.92 23.36C33.1067 23.4667 33.2267 23.6267 33.28 23.84C33.3867 24.08 33.36 24.4933 33.2 25.08C32.7733 26.6533 31.8267 27.6933 30.36 28.2C30.0933 28.28 29.8267 28.3467 29.56 28.4C28.7333 28.5333 27.3333 28.5067 25.36 28.32C21.7067 27.9467 19.5867 26.6133 19 24.32C18.9467 24.16 18.9067 23.9867 18.88 23.8C18.8533 23.6133 18.84 22.7733 18.84 21.28C18.84 19.6533 18.7733 18.6133 18.64 18.16C18.2667 16.9867 17.5733 16.1733 16.56 15.72C16.1867 15.56 15.2933 15.48 13.88 15.48H13.44H11.32V20.28V25.12H13.48H15.64V26.56V28H15.12C15.1467 28 13.8933 27.9733 11.36 27.92C9.2 27.8933 7.02667 27.8933 4.84 27.92C2.30667 27.9733 1.05333 28 1.08 28H0.56V26.56V25.12H2.72H4.88V14.28V3.44H2.72H0.56V2ZM16.28 3.48C16.0667 3.45333 15.1333 3.44 13.48 3.44H11.32V8.24V13.04H13.88C15.8 13.0133 17.0533 12.9333 17.64 12.8C18.28 12.6667 18.8933 12.4133 19.48 12.04C19.9867 11.64 20.32 11.0133 20.48 10.16C20.6133 9.25333 20.6267 8.16 20.52 6.88C20.44 5.65333 20.0533 4.8 19.36 4.32C19.2267 4.24 19.08 4.16 18.92 4.08C18.1733 3.76 17.2933 3.56 16.28 3.48Z" fill="url(#paint0_angular_113_54)"/>
<defs>
<radialGradient id="paint0_angular_113_54" cx="0" cy="0" r="1" gradientUnits="userSpaceOnUse" gradientTransform="translate(16.5 21.2459) rotate(90) scale(18.7541 14.918)">
<stop offset="0.249534" stop-color="#CDAF55"/>
<stop offset="0.76" stop-color="#F1D89F"/>
</radialGradient>
</defs>
</svg>
